<?xml version="1.0" encoding="UTF-8"?>
<svg xmlns="http://www.w3.org/2000/svg" xmlns:xlink="http://www.w3.org/1999/xlink" width="54.488" height="56.648" viewBox="0 0 54.488 56.648">
<defs>
<g>
<g id="glyph-1749865474452094--0-0">
<path d="M 2.90625 -6.3125 C 2.90625 -6.5625 2.90625 -6.578125 2.671875 -6.578125 C 2.0625 -5.9375 1.1875 -5.9375 0.875 -5.9375 L 0.875 -5.640625 C 1.078125 -5.640625 1.65625 -5.640625 2.171875 -5.890625 L 2.171875 -0.78125 C 2.171875 -0.421875 2.140625 -0.3125 1.25 -0.3125 L 0.9375 -0.3125 L 0.9375 0 C 1.28125 -0.03125 2.140625 -0.03125 2.53125 -0.03125 C 2.9375 -0.03125 3.796875 -0.03125 4.140625 0 L 4.140625 -0.3125 L 3.828125 -0.3125 C 2.9375 -0.3125 2.90625 -0.421875 2.90625 -0.78125 Z M 2.90625 -6.3125 "/>
</g>
<g id="glyph-1749865474452094--0-1">
<path d="M 1.25 -0.765625 L 2.296875 -1.78125 C 3.84375 -3.140625 4.4375 -3.671875 4.4375 -4.65625 C 4.4375 -5.78125 3.546875 -6.578125 2.34375 -6.578125 C 1.21875 -6.578125 0.5 -5.671875 0.5 -4.796875 C 0.5 -4.234375 0.984375 -4.234375 1.015625 -4.234375 C 1.1875 -4.234375 1.53125 -4.359375 1.53125 -4.765625 C 1.53125 -5.015625 1.359375 -5.265625 1 -5.265625 C 0.921875 -5.265625 0.90625 -5.265625 0.875 -5.265625 C 1.109375 -5.90625 1.640625 -6.265625 2.21875 -6.265625 C 3.109375 -6.265625 3.53125 -5.46875 3.53125 -4.65625 C 3.53125 -3.875 3.046875 -3.09375 2.5 -2.484375 L 0.609375 -0.359375 C 0.5 -0.25 0.5 -0.234375 0.5 0 L 4.15625 0 L 4.4375 -1.71875 L 4.1875 -1.71875 C 4.140625 -1.421875 4.0625 -0.984375 3.96875 -0.84375 C 3.90625 -0.765625 3.25 -0.765625 3.03125 -0.765625 Z M 1.25 -0.765625 "/>
</g>
<g id="glyph-1749865474452094--0-2">
<path d="M 2.859375 -3.46875 C 3.671875 -3.75 4.25 -4.4375 4.25 -5.21875 C 4.25 -6.03125 3.375 -6.578125 2.421875 -6.578125 C 1.4375 -6.578125 0.6875 -5.984375 0.6875 -5.234375 C 0.6875 -4.90625 0.90625 -4.71875 1.1875 -4.71875 C 1.484375 -4.71875 1.6875 -4.9375 1.6875 -5.21875 C 1.6875 -5.71875 1.21875 -5.71875 1.078125 -5.71875 C 1.375 -6.203125 2.03125 -6.328125 2.390625 -6.328125 C 2.796875 -6.328125 3.34375 -6.109375 3.34375 -5.21875 C 3.34375 -5.109375 3.3125 -4.53125 3.0625 -4.09375 C 2.765625 -3.625 2.421875 -3.59375 2.1875 -3.578125 C 2.109375 -3.578125 1.859375 -3.5625 1.796875 -3.5625 C 1.71875 -3.546875 1.65625 -3.53125 1.65625 -3.4375 C 1.65625 -3.328125 1.71875 -3.328125 1.890625 -3.328125 L 2.328125 -3.328125 C 3.125 -3.328125 3.5 -2.65625 3.5 -1.6875 C 3.5 -0.34375 2.8125 -0.0625 2.375 -0.0625 C 1.953125 -0.0625 1.21875 -0.234375 0.875 -0.8125 C 1.21875 -0.765625 1.515625 -0.984375 1.515625 -1.359375 C 1.515625 -1.703125 1.25 -1.90625 0.96875 -1.90625 C 0.734375 -1.90625 0.421875 -1.765625 0.421875 -1.328125 C 0.421875 -0.4375 1.328125 0.21875 2.40625 0.21875 C 3.609375 0.21875 4.515625 -0.6875 4.515625 -1.6875 C 4.515625 -2.5 3.890625 -3.265625 2.859375 -3.46875 Z M 2.859375 -3.46875 "/>
</g>
<g id="glyph-1749865474452094--0-3">
<path d="M 2.90625 -1.625 L 2.90625 -0.765625 C 2.90625 -0.421875 2.890625 -0.3125 2.15625 -0.3125 L 1.953125 -0.3125 L 1.953125 0 C 2.34375 -0.03125 2.859375 -0.03125 3.28125 -0.03125 C 3.6875 -0.03125 4.21875 -0.03125 4.625 0 L 4.625 -0.3125 L 4.421875 -0.3125 C 3.6875 -0.3125 3.65625 -0.421875 3.65625 -0.765625 L 3.65625 -1.625 L 4.65625 -1.625 L 4.65625 -1.9375 L 3.65625 -1.9375 L 3.65625 -6.421875 C 3.65625 -6.625 3.65625 -6.6875 3.5 -6.6875 C 3.421875 -6.6875 3.390625 -6.6875 3.3125 -6.5625 L 0.28125 -1.9375 L 0.28125 -1.625 Z M 2.96875 -1.9375 L 0.546875 -1.9375 L 2.96875 -5.625 Z M 2.96875 -1.9375 "/>
</g>
</g>
<clipPath id="clip-1749865474452094--0">
<path clip-rule="nonzero" d="M 11.710938 3.238281 L 51.542969 3.238281 L 51.542969 43.074219 L 11.710938 43.074219 Z M 11.710938 3.238281 "/>
</clipPath>
<clipPath id="clip-1749865474452094--1">
<path clip-rule="nonzero" d="M 24 0.0898438 L 40 0.0898438 L 40 15 L 24 15 Z M 24 0.0898438 "/>
</clipPath>
<clipPath id="clip-1749865474452094--2">
<path clip-rule="nonzero" d="M 40 32 L 53.980469 32 L 53.980469 48 L 40 48 Z M 40 32 "/>
</clipPath>
</defs>
<path fill="none" stroke-width="0.19925" stroke-linecap="butt" stroke-linejoin="miter" stroke="rgb(50%, 50%, 50%)" stroke-opacity="1" stroke-miterlimit="10" d="M 0.000492108 -3.35182 L 0.000492108 0.902629 M 16.754109 -3.35182 L 16.754109 0.902629 M 33.503784 -3.35182 L 33.503784 0.902629 M 0.000492108 36.858438 L 0.000492108 32.60399 M 16.754109 36.858438 L 16.754109 32.60399 M 33.503784 36.858438 L 33.503784 32.60399 " transform="matrix(0.990691, 0, 0, -0.990691, 15.030762, 39.753601)"/>
<path fill="none" stroke-width="0.19925" stroke-linecap="butt" stroke-linejoin="miter" stroke="rgb(50%, 50%, 50%)" stroke-opacity="1" stroke-miterlimit="10" d="M -3.35102 -0.0003081 L 0.899486 -0.0003081 M -3.35102 11.170084 L 0.899486 11.170084 M -3.35102 22.336534 L 0.899486 22.336534 M -3.35102 33.506926 L 0.899486 33.506926 M 36.855296 -0.0003081 L 32.60479 -0.0003081 M 36.855296 11.170084 L 32.60479 11.170084 M 36.855296 22.336534 L 32.60479 22.336534 M 36.855296 33.506926 L 32.60479 33.506926 " transform="matrix(0.990691, 0, 0, -0.990691, 15.030762, 39.753601)"/>
<path fill="none" stroke-width="0.3985" stroke-linecap="butt" stroke-linejoin="miter" stroke="rgb(0%, 0%, 0%)" stroke-opacity="1" stroke-miterlimit="10" d="M -3.35102 -3.35182 L -3.35102 36.858438 L 36.855296 36.858438 L 36.855296 -3.35182 Z M -3.35102 -3.35182 " transform="matrix(0.990691, 0, 0, -0.990691, 15.030762, 39.753601)"/>
<g fill="rgb(0%, 0%, 0%)" fill-opacity="1">
<use xlink:href="#glyph-1749865474452094--0-0" x="12.563942" y="52.919883"/>
</g>
<g fill="rgb(0%, 0%, 0%)" fill-opacity="1">
<use xlink:href="#glyph-1749865474452094--0-1" x="29.159996" y="52.919883"/>
</g>
<g fill="rgb(0%, 0%, 0%)" fill-opacity="1">
<use xlink:href="#glyph-1749865474452094--0-2" x="45.75605" y="52.919883"/>
</g>
<g fill="rgb(0%, 0%, 0%)" fill-opacity="1">
<use xlink:href="#glyph-1749865474452094--0-0" x="3.290085" y="42.933719"/>
</g>
<g fill="rgb(0%, 0%, 0%)" fill-opacity="1">
<use xlink:href="#glyph-1749865474452094--0-1" x="3.290085" y="31.868692"/>
</g>
<g fill="rgb(0%, 0%, 0%)" fill-opacity="1">
<use xlink:href="#glyph-1749865474452094--0-2" x="3.290085" y="20.803665"/>
</g>
<g fill="rgb(0%, 0%, 0%)" fill-opacity="1">
<use xlink:href="#glyph-1749865474452094--0-3" x="3.290085" y="9.738639"/>
</g>
<g clip-path="url(#clip-1749865474452094--0)">
<path fill="none" stroke-width="0.3985" stroke-linecap="butt" stroke-linejoin="miter" stroke="rgb(0%, 0%, 100%)" stroke-opacity="1" stroke-miterlimit="10" d="M 0.000492108 11.170084 L 16.754109 33.502983 L 33.503784 -0.0003081 " transform="matrix(0.990691, 0, 0, -0.990691, 15.030762, 39.753601)"/>
</g>
<path fill-rule="nonzero" fill="rgb(0%, 0%, 79.998779%)" fill-opacity="1" stroke-width="0.3985" stroke-linecap="butt" stroke-linejoin="miter" stroke="rgb(0%, 0%, 100%)" stroke-opacity="1" stroke-miterlimit="10" d="M 1.991685 11.170084 C 1.991685 12.270169 1.100577 13.161277 0.000492108 13.161277 C -1.099592 13.161277 -1.9907 12.270169 -1.9907 11.170084 C -1.9907 10.066057 -1.099592 9.174949 0.000492108 9.174949 C 1.100577 9.174949 1.991685 10.066057 1.991685 11.170084 Z M 1.991685 11.170084 " transform="matrix(0.990691, 0, 0, -0.990691, 15.030762, 39.753601)"/>
<path fill-rule="nonzero" fill="rgb(0%, 0%, 79.998779%)" fill-opacity="1" d="M 33.601562 6.5625 C 33.601562 5.46875 32.71875 4.585938 31.628906 4.585938 C 30.535156 4.585938 29.652344 5.46875 29.652344 6.5625 C 29.652344 7.652344 30.535156 8.535156 31.628906 8.535156 C 32.71875 8.535156 33.601562 7.652344 33.601562 6.5625 Z M 33.601562 6.5625 "/>
<g clip-path="url(#clip-1749865474452094--1)">
<path fill="none" stroke-width="0.3985" stroke-linecap="butt" stroke-linejoin="miter" stroke="rgb(0%, 0%, 100%)" stroke-opacity="1" stroke-miterlimit="10" d="M 18.745302 33.502983 C 18.745302 34.607011 17.854194 35.498119 16.754109 35.498119 C 15.650082 35.498119 14.758974 34.607011 14.758974 33.502983 C 14.758974 32.402899 15.650082 31.511791 16.754109 31.511791 C 17.854194 31.511791 18.745302 32.402899 18.745302 33.502983 Z M 18.745302 33.502983 " transform="matrix(0.990691, 0, 0, -0.990691, 15.030762, 39.753601)"/>
</g>
<path fill-rule="nonzero" fill="rgb(0%, 0%, 79.998779%)" fill-opacity="1" d="M 50.199219 39.753906 C 50.199219 38.664062 49.3125 37.78125 48.222656 37.78125 C 47.132812 37.78125 46.25 38.664062 46.25 39.753906 C 46.25 40.84375 47.132812 41.726562 48.222656 41.726562 C 49.3125 41.726562 50.199219 40.84375 50.199219 39.753906 Z M 50.199219 39.753906 "/>
<g clip-path="url(#clip-1749865474452094--2)">
<path fill="none" stroke-width="0.3985" stroke-linecap="butt" stroke-linejoin="miter" stroke="rgb(0%, 0%, 100%)" stroke-opacity="1" stroke-miterlimit="10" d="M 35.498919 -0.0003081 C 35.498919 1.099776 34.603868 1.990884 33.503784 1.990884 C 32.403699 1.990884 31.512591 1.099776 31.512591 -0.0003081 C 31.512591 -1.100393 32.403699 -1.991501 33.503784 -1.991501 C 34.603868 -1.991501 35.498919 -1.100393 35.498919 -0.0003081 Z M 35.498919 -0.0003081 " transform="matrix(0.990691, 0, 0, -0.990691, 15.030762, 39.753601)"/>
</g>
</svg>

