<?xml version="1.0" encoding="UTF-8"?>
<svg xmlns="http://www.w3.org/2000/svg" xmlns:xlink="http://www.w3.org/1999/xlink" width="206.292" height="174.858" viewBox="0 0 206.292 174.858">
<defs>
<g>
<g id="glyph-1749865474452099--0-0">
<path d="M 4.5625 -3.171875 C 4.5625 -3.96875 4.515625 -4.765625 4.171875 -5.5 C 3.703125 -6.453125 2.890625 -6.609375 2.484375 -6.609375 C 1.890625 -6.609375 1.15625 -6.34375 0.75 -5.421875 C 0.4375 -4.75 0.390625 -3.96875 0.390625 -3.171875 C 0.390625 -2.4375 0.421875 -1.53125 0.828125 -0.78125 C 1.265625 0.015625 1.984375 0.21875 2.46875 0.21875 C 3 0.21875 3.765625 0.015625 4.203125 -0.9375 C 4.515625 -1.625 4.5625 -2.390625 4.5625 -3.171875 Z M 2.46875 0 C 2.078125 0 1.5 -0.25 1.3125 -1.203125 C 1.203125 -1.796875 1.203125 -2.703125 1.203125 -3.296875 C 1.203125 -3.921875 1.203125 -4.578125 1.296875 -5.125 C 1.484375 -6.296875 2.21875 -6.390625 2.46875 -6.390625 C 2.796875 -6.390625 3.453125 -6.21875 3.640625 -5.234375 C 3.734375 -4.671875 3.734375 -3.921875 3.734375 -3.296875 C 3.734375 -2.546875 3.734375 -1.875 3.625 -1.234375 C 3.484375 -0.296875 2.921875 0 2.46875 0 Z M 2.46875 0 "/>
</g>
<g id="glyph-1749865474452099--0-1">
<path d="M 1.265625 -0.765625 L 2.3125 -1.78125 C 3.859375 -3.15625 4.453125 -3.6875 4.453125 -4.6875 C 4.453125 -5.8125 3.5625 -6.609375 2.34375 -6.609375 C 1.234375 -6.609375 0.5 -5.6875 0.5 -4.8125 C 0.5 -4.25 0.984375 -4.25 1.015625 -4.25 C 1.1875 -4.25 1.53125 -4.375 1.53125 -4.78125 C 1.53125 -5.046875 1.359375 -5.296875 1.015625 -5.296875 C 0.9375 -5.296875 0.90625 -5.296875 0.890625 -5.28125 C 1.109375 -5.9375 1.640625 -6.296875 2.21875 -6.296875 C 3.125 -6.296875 3.546875 -5.5 3.546875 -4.6875 C 3.546875 -3.890625 3.0625 -3.109375 2.515625 -2.484375 L 0.609375 -0.359375 C 0.5 -0.265625 0.5 -0.234375 0.5 0 L 4.171875 0 L 4.453125 -1.71875 L 4.203125 -1.71875 C 4.15625 -1.421875 4.09375 -0.984375 3.984375 -0.84375 C 3.921875 -0.765625 3.265625 -0.765625 3.046875 -0.765625 Z M 1.265625 -0.765625 "/>
</g>
<g id="glyph-1749865474452099--0-2">
<path d="M 2.921875 -1.640625 L 2.921875 -0.78125 C 2.921875 -0.421875 2.890625 -0.3125 2.15625 -0.3125 L 1.953125 -0.3125 L 1.953125 0 C 2.359375 -0.03125 2.875 -0.03125 3.296875 -0.03125 C 3.703125 -0.03125 4.234375 -0.03125 4.640625 0 L 4.640625 -0.3125 L 4.4375 -0.3125 C 3.703125 -0.3125 3.6875 -0.421875 3.6875 -0.78125 L 3.6875 -1.640625 L 4.671875 -1.640625 L 4.671875 -1.9375 L 3.6875 -1.9375 L 3.6875 -6.453125 C 3.6875 -6.65625 3.6875 -6.71875 3.515625 -6.71875 C 3.4375 -6.71875 3.40625 -6.71875 3.328125 -6.59375 L 0.28125 -1.9375 L 0.28125 -1.640625 Z M 2.96875 -1.9375 L 0.5625 -1.9375 L 2.96875 -5.640625 Z M 2.96875 -1.9375 "/>
</g>
<g id="glyph-1749865474452099--0-3">
<path d="M 1.3125 -3.25 L 1.3125 -3.5 C 1.3125 -6 2.546875 -6.359375 3.046875 -6.359375 C 3.28125 -6.359375 3.703125 -6.296875 3.921875 -5.96875 C 3.765625 -5.96875 3.375 -5.96875 3.375 -5.515625 C 3.375 -5.203125 3.609375 -5.0625 3.828125 -5.0625 C 3.984375 -5.0625 4.28125 -5.15625 4.28125 -5.53125 C 4.28125 -6.125 3.84375 -6.609375 3.03125 -6.609375 C 1.75 -6.609375 0.421875 -5.328125 0.421875 -3.140625 C 0.421875 -0.484375 1.5625 0.21875 2.484375 0.21875 C 3.59375 0.21875 4.53125 -0.71875 4.53125 -2.03125 C 4.53125 -3.28125 3.65625 -4.234375 2.546875 -4.234375 C 1.875 -4.234375 1.515625 -3.734375 1.3125 -3.25 Z M 2.484375 -0.0625 C 1.859375 -0.0625 1.5625 -0.65625 1.515625 -0.796875 C 1.328125 -1.265625 1.328125 -2.0625 1.328125 -2.25 C 1.328125 -3.015625 1.640625 -4.015625 2.546875 -4.015625 C 2.703125 -4.015625 3.15625 -4.015625 3.46875 -3.390625 C 3.640625 -3.03125 3.640625 -2.515625 3.640625 -2.03125 C 3.640625 -1.5625 3.640625 -1.0625 3.46875 -0.703125 C 3.171875 -0.109375 2.71875 -0.0625 2.484375 -0.0625 Z M 2.484375 -0.0625 "/>
</g>
<g id="glyph-1749865474452099--0-4">
<path d="M 1.625 -4.53125 C 1.15625 -4.828125 1.125 -5.171875 1.125 -5.34375 C 1.125 -5.9375 1.765625 -6.359375 2.46875 -6.359375 C 3.1875 -6.359375 3.828125 -5.84375 3.828125 -5.125 C 3.828125 -4.5625 3.4375 -4.09375 2.84375 -3.734375 Z M 3.0625 -3.59375 C 3.78125 -3.953125 4.265625 -4.46875 4.265625 -5.125 C 4.265625 -6.046875 3.390625 -6.609375 2.484375 -6.609375 C 1.484375 -6.609375 0.6875 -5.875 0.6875 -4.953125 C 0.6875 -4.765625 0.703125 -4.328125 1.125 -3.859375 C 1.234375 -3.734375 1.59375 -3.5 1.84375 -3.328125 C 1.265625 -3.03125 0.421875 -2.484375 0.421875 -1.5 C 0.421875 -0.453125 1.421875 0.21875 2.46875 0.21875 C 3.59375 0.21875 4.53125 -0.609375 4.53125 -1.671875 C 4.53125 -2.03125 4.421875 -2.46875 4.046875 -2.890625 C 3.859375 -3.09375 3.703125 -3.1875 3.0625 -3.59375 Z M 2.078125 -3.171875 L 3.296875 -2.40625 C 3.578125 -2.21875 4.03125 -1.921875 4.03125 -1.3125 C 4.03125 -0.578125 3.296875 -0.0625 2.484375 -0.0625 C 1.625 -0.0625 0.90625 -0.671875 0.90625 -1.5 C 0.90625 -2.078125 1.234375 -2.703125 2.078125 -3.171875 Z M 2.078125 -3.171875 "/>
</g>
<g id="glyph-1749865474452099--0-5">
<path d="M 2.921875 -6.34375 C 2.921875 -6.59375 2.921875 -6.609375 2.6875 -6.609375 C 2.078125 -5.96875 1.203125 -5.96875 0.890625 -5.96875 L 0.890625 -5.671875 C 1.078125 -5.671875 1.671875 -5.671875 2.1875 -5.921875 L 2.1875 -0.78125 C 2.1875 -0.421875 2.15625 -0.3125 1.265625 -0.3125 L 0.9375 -0.3125 L 0.9375 0 C 1.296875 -0.03125 2.15625 -0.03125 2.546875 -0.03125 C 2.953125 -0.03125 3.8125 -0.03125 4.15625 0 L 4.15625 -0.3125 L 3.84375 -0.3125 C 2.953125 -0.3125 2.921875 -0.421875 2.921875 -0.78125 Z M 2.921875 -6.34375 "/>
</g>
<g id="glyph-1749865474452099--0-6">
<path d="M 2.0625 -1.921875 C 2.28125 -1.890625 3.09375 -1.71875 3.09375 -1.015625 C 3.09375 -0.5 2.75 -0.109375 1.96875 -0.109375 C 1.140625 -0.109375 0.78125 -0.671875 0.59375 -1.515625 C 0.5625 -1.640625 0.5625 -1.6875 0.453125 -1.6875 C 0.328125 -1.6875 0.328125 -1.625 0.328125 -1.4375 L 0.328125 -0.125 C 0.328125 0.046875 0.328125 0.109375 0.4375 0.109375 C 0.484375 0.109375 0.5 0.09375 0.6875 -0.09375 C 0.703125 -0.109375 0.703125 -0.125 0.890625 -0.3125 C 1.3125 0.09375 1.765625 0.109375 1.96875 0.109375 C 3.109375 0.109375 3.578125 -0.5625 3.578125 -1.265625 C 3.578125 -1.796875 3.28125 -2.09375 3.15625 -2.21875 C 2.828125 -2.53125 2.4375 -2.609375 2.03125 -2.6875 C 1.46875 -2.796875 0.796875 -2.921875 0.796875 -3.5 C 0.796875 -3.84375 1.0625 -4.25 1.921875 -4.25 C 3 -4.25 3.0625 -3.359375 3.078125 -3.0625 C 3.078125 -2.96875 3.171875 -2.96875 3.1875 -2.96875 C 3.328125 -2.96875 3.328125 -3.015625 3.328125 -3.203125 L 3.328125 -4.203125 C 3.328125 -4.375 3.328125 -4.4375 3.21875 -4.4375 C 3.171875 -4.4375 3.140625 -4.4375 3.015625 -4.328125 C 2.984375 -4.28125 2.890625 -4.203125 2.84375 -4.171875 C 2.46875 -4.4375 2.0625 -4.4375 1.921875 -4.4375 C 0.703125 -4.4375 0.328125 -3.78125 0.328125 -3.21875 C 0.328125 -2.875 0.484375 -2.59375 0.75 -2.375 C 1.078125 -2.125 1.34375 -2.0625 2.0625 -1.921875 Z M 2.0625 -1.921875 "/>
</g>
<g id="glyph-1749865474452099--0-7">
<path d="M 1.75 -4.390625 L 0.359375 -4.28125 L 0.359375 -3.96875 C 1.015625 -3.96875 1.09375 -3.90625 1.09375 -3.421875 L 1.09375 -0.75 C 1.09375 -0.3125 0.984375 -0.3125 0.328125 -0.3125 L 0.328125 0 C 0.640625 -0.015625 1.1875 -0.03125 1.421875 -0.03125 C 1.765625 -0.03125 2.109375 -0.015625 2.453125 0 L 2.453125 -0.3125 C 1.796875 -0.3125 1.75 -0.359375 1.75 -0.75 Z M 1.796875 -6.109375 C 1.796875 -6.421875 1.546875 -6.640625 1.265625 -6.640625 C 0.96875 -6.640625 0.75 -6.375 0.75 -6.109375 C 0.75 -5.84375 0.96875 -5.59375 1.265625 -5.59375 C 1.546875 -5.59375 1.796875 -5.796875 1.796875 -6.109375 Z M 1.796875 -6.109375 "/>
</g>
<g id="glyph-1749865474452099--0-8">
<path d="M 1.09375 -3.40625 L 1.09375 -0.75 C 1.09375 -0.3125 0.984375 -0.3125 0.3125 -0.3125 L 0.3125 0 C 0.671875 -0.015625 1.171875 -0.03125 1.4375 -0.03125 C 1.703125 -0.03125 2.21875 -0.015625 2.546875 0 L 2.546875 -0.3125 C 1.890625 -0.3125 1.78125 -0.3125 1.78125 -0.75 L 1.78125 -2.578125 C 1.78125 -3.609375 2.484375 -4.171875 3.109375 -4.171875 C 3.734375 -4.171875 3.84375 -3.625 3.84375 -3.0625 L 3.84375 -0.75 C 3.84375 -0.3125 3.734375 -0.3125 3.078125 -0.3125 L 3.078125 0 C 3.421875 -0.015625 3.921875 -0.03125 4.203125 -0.03125 C 4.453125 -0.03125 4.96875 -0.015625 5.3125 0 L 5.3125 -0.3125 C 4.796875 -0.3125 4.546875 -0.3125 4.53125 -0.609375 L 4.53125 -2.5 C 4.53125 -3.359375 4.53125 -3.65625 4.234375 -4.015625 C 4.09375 -4.1875 3.765625 -4.390625 3.1875 -4.390625 C 2.453125 -4.390625 2 -3.953125 1.71875 -3.34375 L 1.71875 -4.390625 L 0.3125 -4.28125 L 0.3125 -3.96875 C 1.015625 -3.96875 1.09375 -3.90625 1.09375 -3.40625 Z M 1.09375 -3.40625 "/>
</g>
<g id="glyph-1749865474452099--0-9">
<path d="M 3.28125 2.375 C 3.28125 2.34375 3.28125 2.328125 3.109375 2.15625 C 1.875 0.90625 1.5625 -0.96875 1.5625 -2.484375 C 1.5625 -4.203125 1.9375 -5.9375 3.15625 -7.171875 C 3.28125 -7.296875 3.28125 -7.3125 3.28125 -7.34375 C 3.28125 -7.40625 3.25 -7.4375 3.1875 -7.4375 C 3.078125 -7.4375 2.1875 -6.765625 1.609375 -5.5 C 1.09375 -4.421875 0.984375 -3.3125 0.984375 -2.484375 C 0.984375 -1.703125 1.09375 -0.5 1.640625 0.609375 C 2.234375 1.828125 3.078125 2.484375 3.1875 2.484375 C 3.25 2.484375 3.28125 2.453125 3.28125 2.375 Z M 3.28125 2.375 "/>
</g>
<g id="glyph-1749865474452099--0-10">
<path d="M 2.875 -2.484375 C 2.875 -3.25 2.765625 -4.453125 2.21875 -5.578125 C 1.625 -6.796875 0.765625 -7.4375 0.671875 -7.4375 C 0.609375 -7.4375 0.5625 -7.40625 0.5625 -7.34375 C 0.5625 -7.3125 0.5625 -7.296875 0.75 -7.109375 C 1.71875 -6.125 2.296875 -4.546875 2.296875 -2.484375 C 2.296875 -0.78125 1.921875 0.96875 0.6875 2.21875 C 0.5625 2.328125 0.5625 2.34375 0.5625 2.375 C 0.5625 2.4375 0.609375 2.484375 0.671875 2.484375 C 0.765625 2.484375 1.65625 1.8125 2.25 0.546875 C 2.75 -0.546875 2.875 -1.640625 2.875 -2.484375 Z M 2.875 -2.484375 "/>
</g>
<g id="glyph-1749865474452099--0-11">
<path d="M 2.875 -3.5 C 3.6875 -3.765625 4.265625 -4.453125 4.265625 -5.234375 C 4.265625 -6.046875 3.390625 -6.609375 2.4375 -6.609375 C 1.4375 -6.609375 0.6875 -6.015625 0.6875 -5.265625 C 0.6875 -4.9375 0.90625 -4.75 1.1875 -4.75 C 1.5 -4.75 1.703125 -4.953125 1.703125 -5.25 C 1.703125 -5.75 1.234375 -5.75 1.078125 -5.75 C 1.390625 -6.234375 2.046875 -6.359375 2.40625 -6.359375 C 2.8125 -6.359375 3.359375 -6.140625 3.359375 -5.25 C 3.359375 -5.125 3.328125 -4.546875 3.078125 -4.125 C 2.78125 -3.640625 2.4375 -3.609375 2.1875 -3.609375 C 2.109375 -3.59375 1.875 -3.578125 1.8125 -3.578125 C 1.71875 -3.5625 1.65625 -3.546875 1.65625 -3.453125 C 1.65625 -3.34375 1.71875 -3.34375 1.890625 -3.34375 L 2.328125 -3.34375 C 3.140625 -3.34375 3.515625 -2.671875 3.515625 -1.703125 C 3.515625 -0.34375 2.828125 -0.0625 2.390625 -0.0625 C 1.96875 -0.0625 1.21875 -0.234375 0.875 -0.8125 C 1.21875 -0.765625 1.53125 -0.984375 1.53125 -1.359375 C 1.53125 -1.71875 1.265625 -1.921875 0.96875 -1.921875 C 0.734375 -1.921875 0.421875 -1.78125 0.421875 -1.34375 C 0.421875 -0.4375 1.34375 0.21875 2.421875 0.21875 C 3.625 0.21875 4.53125 -0.6875 4.53125 -1.703125 C 4.53125 -2.515625 3.90625 -3.28125 2.875 -3.5 Z M 2.875 -3.5 "/>
</g>
<g id="glyph-1749865474452099--0-12">
<path d="M 1.109375 -2.5 C 1.171875 -3.984375 2 -4.234375 2.34375 -4.234375 C 3.359375 -4.234375 3.46875 -2.890625 3.46875 -2.5 Z M 1.09375 -2.296875 L 3.875 -2.296875 C 4.09375 -2.296875 4.125 -2.296875 4.125 -2.5 C 4.125 -3.484375 3.578125 -4.4375 2.34375 -4.4375 C 1.1875 -4.4375 0.28125 -3.421875 0.28125 -2.1875 C 0.28125 -0.859375 1.3125 0.109375 2.453125 0.109375 C 3.671875 0.109375 4.125 -0.984375 4.125 -1.1875 C 4.125 -1.28125 4.03125 -1.296875 3.984375 -1.296875 C 3.90625 -1.296875 3.875 -1.234375 3.859375 -1.15625 C 3.515625 -0.140625 2.625 -0.140625 2.515625 -0.140625 C 2.03125 -0.140625 1.625 -0.4375 1.40625 -0.796875 C 1.09375 -1.28125 1.09375 -1.9375 1.09375 -2.296875 Z M 1.09375 -2.296875 "/>
</g>
<g id="glyph-1749865474452099--0-13">
<path d="M 2.84375 -2.328125 C 3.140625 -2.703125 3.515625 -3.1875 3.765625 -3.453125 C 4.0625 -3.8125 4.46875 -3.953125 4.9375 -3.96875 L 4.9375 -4.28125 C 4.6875 -4.25 4.390625 -4.25 4.125 -4.25 C 3.828125 -4.25 3.296875 -4.265625 3.171875 -4.28125 L 3.171875 -3.96875 C 3.390625 -3.953125 3.46875 -3.8125 3.46875 -3.65625 C 3.46875 -3.5 3.359375 -3.375 3.3125 -3.3125 L 2.703125 -2.546875 L 1.921875 -3.546875 C 1.828125 -3.640625 1.828125 -3.65625 1.828125 -3.71875 C 1.828125 -3.875 1.984375 -3.953125 2.1875 -3.96875 L 2.1875 -4.28125 C 1.921875 -4.265625 1.265625 -4.25 1.109375 -4.25 C 0.90625 -4.25 0.4375 -4.25 0.171875 -4.28125 L 0.171875 -3.96875 C 0.859375 -3.96875 0.875 -3.953125 1.34375 -3.359375 L 2.328125 -2.078125 L 1.390625 -0.90625 C 0.90625 -0.328125 0.328125 -0.3125 0.125 -0.3125 L 0.125 0 C 0.375 -0.015625 0.6875 -0.03125 0.9375 -0.03125 C 1.234375 -0.03125 1.640625 -0.015625 1.890625 0 L 1.890625 -0.3125 C 1.671875 -0.34375 1.59375 -0.46875 1.59375 -0.609375 C 1.59375 -0.828125 1.890625 -1.15625 2.484375 -1.875 L 3.25 -0.890625 C 3.328125 -0.78125 3.453125 -0.609375 3.453125 -0.5625 C 3.453125 -0.46875 3.359375 -0.3125 3.09375 -0.3125 L 3.09375 0 C 3.390625 -0.015625 3.953125 -0.03125 4.171875 -0.03125 C 4.4375 -0.03125 4.828125 -0.015625 5.125 0 L 5.125 -0.3125 C 4.578125 -0.3125 4.40625 -0.328125 4.171875 -0.609375 Z M 2.84375 -2.328125 "/>
</g>
<g id="glyph-1749865474452099--0-14">
<path d="M 1.703125 -3.734375 L 1.703125 -4.390625 L 0.28125 -4.28125 L 0.28125 -3.96875 C 0.984375 -3.96875 1.046875 -3.90625 1.046875 -3.46875 L 1.046875 1.171875 C 1.046875 1.625 0.9375 1.625 0.28125 1.625 L 0.28125 1.921875 C 0.609375 1.921875 1.125 1.890625 1.390625 1.890625 C 1.65625 1.890625 2.15625 1.921875 2.515625 1.921875 L 2.515625 1.625 C 1.84375 1.625 1.734375 1.625 1.734375 1.171875 L 1.734375 -0.578125 C 1.78125 -0.421875 2.203125 0.109375 2.953125 0.109375 C 4.140625 0.109375 5.171875 -0.859375 5.171875 -2.140625 C 5.171875 -3.40625 4.203125 -4.390625 3.09375 -4.390625 C 2.328125 -4.390625 1.90625 -3.953125 1.703125 -3.734375 Z M 1.734375 -1.125 L 1.734375 -3.34375 C 2.03125 -3.84375 2.515625 -4.140625 3.015625 -4.140625 C 3.734375 -4.140625 4.34375 -3.265625 4.34375 -2.140625 C 4.34375 -0.9375 3.65625 -0.109375 2.921875 -0.109375 C 2.515625 -0.109375 2.140625 -0.3125 1.875 -0.71875 C 1.734375 -0.921875 1.734375 -0.9375 1.734375 -1.125 Z M 1.734375 -1.125 "/>
</g>
<g id="glyph-1749865474452099--1-0">
<path d="M 3.3125 -3 C 3.375 -3.25 3.609375 -4.171875 4.296875 -4.171875 C 4.34375 -4.171875 4.578125 -4.171875 4.796875 -4.03125 C 4.515625 -3.984375 4.3125 -3.734375 4.3125 -3.5 C 4.3125 -3.34375 4.421875 -3.15625 4.6875 -3.15625 C 4.90625 -3.15625 5.234375 -3.328125 5.234375 -3.734375 C 5.234375 -4.25 4.640625 -4.390625 4.3125 -4.390625 C 3.734375 -4.390625 3.390625 -3.859375 3.265625 -3.625 C 3.015625 -4.28125 2.484375 -4.390625 2.1875 -4.390625 C 1.15625 -4.390625 0.59375 -3.109375 0.59375 -2.859375 C 0.59375 -2.765625 0.6875 -2.765625 0.71875 -2.765625 C 0.796875 -2.765625 0.828125 -2.78125 0.84375 -2.875 C 1.1875 -3.921875 1.828125 -4.171875 2.171875 -4.171875 C 2.359375 -4.171875 2.703125 -4.078125 2.703125 -3.5 C 2.703125 -3.1875 2.546875 -2.53125 2.171875 -1.140625 C 2.015625 -0.53125 1.671875 -0.109375 1.234375 -0.109375 C 1.171875 -0.109375 0.9375 -0.109375 0.734375 -0.234375 C 0.984375 -0.28125 1.203125 -0.5 1.203125 -0.78125 C 1.203125 -1.046875 0.984375 -1.125 0.828125 -1.125 C 0.53125 -1.125 0.28125 -0.859375 0.28125 -0.546875 C 0.28125 -0.09375 0.78125 0.109375 1.21875 0.109375 C 1.875 0.109375 2.234375 -0.578125 2.265625 -0.640625 C 2.375 -0.28125 2.734375 0.109375 3.328125 0.109375 C 4.359375 0.109375 4.921875 -1.171875 4.921875 -1.421875 C 4.921875 -1.515625 4.828125 -1.515625 4.796875 -1.515625 C 4.71875 -1.515625 4.6875 -1.484375 4.671875 -1.40625 C 4.34375 -0.34375 3.671875 -0.109375 3.359375 -0.109375 C 2.96875 -0.109375 2.8125 -0.421875 2.8125 -0.765625 C 2.8125 -0.984375 2.875 -1.203125 2.96875 -1.640625 Z M 3.3125 -3 "/>
</g>
<g id="glyph-1749865474452099--2-0">
<path d="M 6.53125 -2.28125 C 6.703125 -2.28125 6.890625 -2.28125 6.890625 -2.484375 C 6.890625 -2.671875 6.703125 -2.671875 6.53125 -2.671875 L 1.171875 -2.671875 C 1 -2.671875 0.828125 -2.671875 0.828125 -2.484375 C 0.828125 -2.28125 1 -2.28125 1.171875 -2.28125 Z M 6.53125 -2.28125 "/>
</g>
</g>
<clipPath id="clip-1749865474452099--0">
<path clip-rule="nonzero" d="M 27 0.226562 L 190 0.226562 L 190 162 L 27 162 Z M 27 0.226562 "/>
</clipPath>
<clipPath id="clip-1749865474452099--1">
<path clip-rule="nonzero" d="M 11 25 L 205.585938 25 L 205.585938 124 L 11 124 Z M 11 25 "/>
</clipPath>
<clipPath id="clip-1749865474452099--2">
<path clip-rule="nonzero" d="M 11 0.226562 L 205.585938 0.226562 L 205.585938 162 L 11 162 Z M 11 0.226562 "/>
</clipPath>
</defs>
<g clip-path="url(#clip-1749865474452099--0)">
<path fill="none" stroke-width="0.19925" stroke-linecap="butt" stroke-linejoin="miter" stroke="rgb(50%, 50%, 50%)" stroke-opacity="1" stroke-miterlimit="10" d="M 0.00178401 -13.450874 L 0.00178401 -9.198047 M 32.378146 -13.450874 L 32.378146 -9.198047 M 64.758427 -13.450874 L 64.758427 -9.198047 M 97.134788 -13.450874 L 97.134788 -9.198047 M 129.515069 -13.450874 L 129.515069 -9.198047 M 161.895351 -13.450874 L 161.895351 -9.198047 M 0.00178401 147.948816 L 0.00178401 143.695989 M 32.378146 147.948816 L 32.378146 143.695989 M 64.758427 147.948816 L 64.758427 143.695989 M 97.134788 147.948816 L 97.134788 143.695989 M 129.515069 147.948816 L 129.515069 143.695989 M 161.895351 147.948816 L 161.895351 143.695989 " transform="matrix(0.99658, 0, 0, -0.99658, 27.916191, 147.86857)"/>
</g>
<g clip-path="url(#clip-1749865474452099--1)">
<path fill="none" stroke-width="0.19925" stroke-linecap="butt" stroke-linejoin="miter" stroke="rgb(50%, 50%, 50%)" stroke-opacity="1" stroke-miterlimit="10" d="M -16.190316 24.565873 L -11.937489 24.565873 M -16.190316 73.730123 L -11.937489 73.730123 M -16.190316 122.894373 L -11.937489 122.894373 M 178.083531 24.565873 L 173.830704 24.565873 M 178.083531 73.730123 L 173.830704 73.730123 M 178.083531 122.894373 L 173.830704 122.894373 " transform="matrix(0.99658, 0, 0, -0.99658, 27.916191, 147.86857)"/>
</g>
<g clip-path="url(#clip-1749865474452099--2)">
<path fill="none" stroke-width="0.3985" stroke-linecap="butt" stroke-linejoin="miter" stroke="rgb(0%, 0%, 0%)" stroke-opacity="1" stroke-miterlimit="10" d="M -16.190316 -13.450874 L -16.190316 147.948816 L 178.083531 147.948816 L 178.083531 -13.450874 Z M -16.190316 -13.450874 " transform="matrix(0.99658, 0, 0, -0.99658, 27.916191, 147.86857)"/>
</g>
<g fill="rgb(0%, 0%, 0%)" fill-opacity="1">
<use xlink:href="#glyph-1749865474452099--0-0" x="25.433711" y="171.178569"/>
</g>
<g fill="rgb(0%, 0%, 0%)" fill-opacity="1">
<use xlink:href="#glyph-1749865474452099--0-1" x="57.700969" y="171.178569"/>
</g>
<g fill="rgb(0%, 0%, 0%)" fill-opacity="1">
<use xlink:href="#glyph-1749865474452099--0-2" x="89.969223" y="171.178569"/>
</g>
<g fill="rgb(0%, 0%, 0%)" fill-opacity="1">
<use xlink:href="#glyph-1749865474452099--0-3" x="122.236481" y="171.178569"/>
</g>
<g fill="rgb(0%, 0%, 0%)" fill-opacity="1">
<use xlink:href="#glyph-1749865474452099--0-4" x="154.503739" y="171.178569"/>
</g>
<g fill="rgb(0%, 0%, 0%)" fill-opacity="1">
<use xlink:href="#glyph-1749865474452099--0-5" x="184.289513" y="171.178569"/>
<use xlink:href="#glyph-1749865474452099--0-0" x="189.253796" y="171.178569"/>
</g>
<g fill="rgb(0%, 0%, 0%)" fill-opacity="1">
<use xlink:href="#glyph-1749865474452099--0-0" x="3.309641" y="126.585613"/>
</g>
<g fill="rgb(0%, 0%, 0%)" fill-opacity="1">
<use xlink:href="#glyph-1749865474452099--0-1" x="3.309641" y="77.590765"/>
</g>
<g fill="rgb(0%, 0%, 0%)" fill-opacity="1">
<use xlink:href="#glyph-1749865474452099--0-2" x="3.309641" y="28.596913"/>
</g>
<path fill="none" stroke-width="0.3985" stroke-linecap="butt" stroke-linejoin="miter" stroke="rgb(100%, 0%, 0%)" stroke-opacity="1" stroke-miterlimit="10" d="M 0.00178401 24.565873 L 1.636281 27.043096 L 3.270777 29.496801 L 4.905274 31.89955 L 6.539771 34.227826 L 8.178187 36.458111 L 9.812684 38.566886 L 11.447181 40.534553 L 13.081677 42.337595 L 14.716174 43.960333 L 16.35459 45.383168 L 17.989087 46.594342 L 19.623584 47.582095 L 21.25808 48.33467 L 22.892577 48.844225 L 24.530994 49.110761 L 26.16549 49.12252 L 27.799987 48.883421 L 29.434484 48.397384 L 31.06898 47.672248 L 32.707397 46.708012 L 34.341893 45.516437 L 35.97639 44.1132 L 37.610887 42.51006 L 39.245383 40.726617 L 40.8838 38.774628 L 42.518297 36.681531 L 44.152793 34.463006 L 45.78729 32.142569 L 47.421787 29.743739 L 49.060203 27.297874 L 50.6947 24.816731 L 52.329196 22.339509 L 53.963693 19.881884 L 55.59819 17.471295 L 57.236606 15.13518 L 58.871103 12.893137 L 60.5056 10.772603 L 62.140096 8.789256 L 63.774593 6.970536 L 65.413009 5.3282 L 67.047506 3.885766 L 68.682003 2.651075 L 70.316499 1.639803 L 71.950996 0.863711 L 73.589413 0.326718 L 75.223909 0.0366638 L 76.858406 0.00138692 L 78.492903 0.213048 L 80.127399 0.671648 L 81.765816 1.377186 L 83.400312 2.317904 L 85.034809 3.485961 L 86.669306 4.86568 L 88.303803 6.449222 L 89.942219 8.216987 L 91.576716 10.153297 L 93.211212 12.230715 L 94.845709 14.441401 L 96.480206 16.750079 L 98.118622 19.141069 L 99.753119 21.586935 L 101.387615 24.060238 L 103.022112 26.54138 L 104.656609 29.002924 L 106.295025 31.417433 L 107.929522 33.761387 L 109.564019 36.01519 L 111.198515 38.151402 L 112.833012 40.146507 L 114.471428 41.984826 L 116.105925 43.642841 L 117.740422 45.108792 L 119.374918 46.367002 L 121.009415 47.401791 L 122.647832 48.201401 L 124.282328 48.761912 L 125.916825 49.075485 L 127.551322 49.138199 L 129.185818 48.953975 L 130.824235 48.518893 L 132.458731 47.836873 L 134.093228 46.919674 L 135.727725 45.775134 L 137.362222 44.415013 L 139.000638 42.85107 L 140.635135 41.102904 L 142.269631 39.186192 L 143.904128 37.116613 L 145.538625 34.921605 L 147.177041 32.620767 L 148.811538 30.237616 L 150.446034 27.79567 L 152.080531 25.322367 L 153.715028 22.841225 L 155.353444 20.37968 L 156.987941 17.957333 L 158.622438 15.605539 L 160.256934 13.339978 L 161.891431 11.192006 " transform="matrix(0.99658, 0, 0, -0.99658, 27.916191, 147.86857)"/>
<path fill="none" stroke-width="0.3985" stroke-linecap="butt" stroke-linejoin="miter" stroke="rgb(0%, 0%, 100%)" stroke-opacity="1" stroke-miterlimit="10" d="M 0.00178401 24.565873 L 1.636281 35.615385 L 3.270777 40.189624 L 4.905274 43.701636 L 6.539771 46.660976 L 8.178187 49.271467 L 9.812684 51.627181 L 11.447181 53.79867 L 13.081677 55.817294 L 14.716174 57.710488 L 16.35459 59.50569 L 17.989087 61.210741 L 19.623584 62.837398 L 21.25808 64.401341 L 22.892577 65.906489 L 24.530994 67.356762 L 26.16549 68.759999 L 27.799987 70.12012 L 29.434484 71.441044 L 31.06898 72.726691 L 32.707397 73.977061 L 34.341893 75.196075 L 35.97639 76.38765 L 37.610887 77.551788 L 39.245383 78.692408 L 40.8838 79.80951 L 42.518297 80.903094 L 44.152793 81.97708 L 45.78729 83.027548 L 47.421787 84.062337 L 49.060203 85.081448 L 50.6947 86.08096 L 52.329196 87.064794 L 53.963693 88.032949 L 55.59819 88.989345 L 57.236606 89.930063 L 58.871103 90.855102 L 60.5056 91.772301 L 62.140096 92.673822 L 63.774593 93.563584 L 65.413009 94.441587 L 67.047506 95.311751 L 68.682003 96.166236 L 70.316499 97.016802 L 71.950996 97.851688 L 73.589413 98.682655 L 75.223909 99.501864 L 76.858406 100.309313 L 78.492903 101.112842 L 80.127399 101.904613 L 81.765816 102.688544 L 83.400312 103.468556 L 85.034809 104.236809 L 86.669306 105.001142 L 88.303803 105.753716 L 89.942219 106.50237 L 91.576716 107.243185 L 93.211212 107.98008 L 94.845709 108.709136 L 96.480206 109.430353 L 98.118622 110.14765 L 99.753119 110.857108 L 101.387615 111.562646 L 103.022112 112.260345 L 104.656609 112.954124 L 106.295025 113.640064 L 107.929522 114.322084 L 109.564019 115.000185 L 111.198515 115.674366 L 112.833012 116.340707 L 114.471428 117.003129 L 116.105925 117.661632 L 117.740422 118.316214 L 121.009415 119.609701 L 122.647832 120.248605 L 124.282328 120.883589 L 125.916825 121.514654 L 127.551322 122.141799 L 129.185818 122.765024 L 130.824235 123.38433 L 134.093228 124.615102 L 135.727725 125.222649 L 137.362222 125.826276 L 139.000638 126.425983 L 140.635135 127.025691 L 143.904128 128.209427 L 145.538625 128.797375 L 147.177041 129.381404 L 148.811538 129.961513 L 152.080531 131.113892 L 153.715028 131.682242 L 155.353444 132.250593 L 156.987941 132.818943 L 160.256934 133.939964 L 161.891431 134.496556 " transform="matrix(0.99658, 0, 0, -0.99658, 27.916191, 147.86857)"/>
<path fill="none" stroke-width="0.3985" stroke-linecap="butt" stroke-linejoin="miter" stroke="rgb(0%, 100%, 0%)" stroke-opacity="1" stroke-miterlimit="10" d="M 0.00178401 98.310288 L 1.636281 91.223549 L 3.270777 84.818831 L 4.905274 79.029498 L 6.539771 73.796757 L 8.178187 69.069652 L 9.812684 64.793307 L 11.447181 60.928525 L 13.081677 57.436112 L 14.716174 54.276869 L 16.35459 51.423359 L 17.989087 48.840305 L 19.623584 46.50811 L 21.25808 44.399335 L 22.892577 42.494382 L 24.530994 40.773652 L 26.16549 39.217549 L 27.799987 37.806473 L 29.434484 36.536504 L 31.06898 35.384125 L 32.707397 34.345416 L 34.341893 33.408618 L 35.97639 32.558053 L 37.610887 31.7898 L 39.245383 31.096021 L 40.8838 30.468876 L 42.518297 29.900526 L 44.152793 29.387051 L 45.78729 28.924531 L 47.421787 28.505128 L 49.060203 28.128841 L 50.6947 27.783911 L 52.329196 27.478178 L 53.963693 27.195963 L 55.59819 26.945105 L 57.236606 26.713845 L 58.871103 26.510023 L 60.5056 26.321879 L 62.140096 26.153334 L 63.774593 26.000468 L 65.413009 25.86328 L 67.047506 25.737851 L 68.682003 25.624181 L 70.316499 25.522269 L 71.950996 25.432117 L 73.589413 25.349805 L 75.223909 25.275331 L 76.858406 25.204777 L 80.127399 25.087188 L 81.765816 25.040152 L 83.400312 24.993116 L 86.669306 24.914723 L 88.303803 24.879446 L 89.942219 24.852008 L 93.211212 24.797133 L 96.480206 24.757937 L 98.118622 24.738338 L 103.022112 24.691302 L 104.656609 24.679543 L 106.295025 24.671704 L 107.929522 24.659945 L 112.833012 24.636427 L 114.471428 24.628588 L 116.105925 24.620749 L 121.009415 24.60899 L 122.647832 24.60507 L 129.185818 24.589391 L 130.824235 24.589391 L 132.458731 24.585472 L 134.093228 24.585472 L 135.727725 24.581552 L 139.000638 24.581552 L 140.635135 24.577632 L 143.904128 24.577632 L 145.538625 24.573713 L 152.080531 24.573713 L 153.715028 24.569793 L 161.891431 24.569793 " transform="matrix(0.99658, 0, 0, -0.99658, 27.916191, 147.86857)"/>
<path fill-rule="nonzero" fill="rgb(100%, 100%, 100%)" fill-opacity="1" stroke-width="0.3985" stroke-linecap="butt" stroke-linejoin="miter" stroke="rgb(0%, 0%, 0%)" stroke-opacity="1" stroke-miterlimit="10" d="M 109.66201 115.686125 L 173.99925 115.686125 L 173.99925 144.523037 L 109.66201 144.523037 Z M 109.66201 115.686125 " transform="matrix(0.99658, 0, 0, -0.99658, 27.916191, 147.86857)"/>
<path fill="none" stroke-width="0.3985" stroke-linecap="butt" stroke-linejoin="miter" stroke="rgb(100%, 0%, 0%)" stroke-opacity="1" stroke-miterlimit="10" d="M -0.000309359 0.000659211 L 17.00708 0.000659211 " transform="matrix(0.99658, 0, 0, -0.99658, 140.379215, 12.281907)"/>
<g fill="rgb(0%, 0%, 0%)" fill-opacity="1">
<use xlink:href="#glyph-1749865474452099--0-6" x="159.513545" y="15.260684"/>
<use xlink:href="#glyph-1749865474452099--0-7" x="163.429371" y="15.260684"/>
<use xlink:href="#glyph-1749865474452099--0-8" x="166.187526" y="15.260684"/>
<use xlink:href="#glyph-1749865474452099--0-9" x="171.703837" y="15.260684"/>
</g>
<g fill="rgb(0%, 0%, 0%)" fill-opacity="1">
<use xlink:href="#glyph-1749865474452099--1-0" x="175.564458" y="15.260684"/>
</g>
<g fill="rgb(0%, 0%, 0%)" fill-opacity="1">
<use xlink:href="#glyph-1749865474452099--0-10" x="181.238983" y="15.260684"/>
</g>
<path fill="none" stroke-width="0.3985" stroke-linecap="butt" stroke-linejoin="miter" stroke="rgb(0%, 100%, 0%)" stroke-opacity="1" stroke-miterlimit="10" d="M -0.000309359 0.00134855 L 17.00708 0.00134855 " transform="matrix(0.99658, 0, 0, -0.99658, 140.379215, 24.665406)"/>
<g fill="rgb(0%, 0%, 0%)" fill-opacity="1">
<use xlink:href="#glyph-1749865474452099--0-11" x="159.513545" y="27.119982"/>
</g>
<g fill="rgb(0%, 0%, 0%)" fill-opacity="1">
<use xlink:href="#glyph-1749865474452099--0-12" x="166.125969" y="27.119982"/>
<use xlink:href="#glyph-1749865474452099--0-13" x="170.538223" y="27.119982"/>
<use xlink:href="#glyph-1749865474452099--0-14" x="175.77852" y="27.119982"/>
</g>
<g fill="rgb(0%, 0%, 0%)" fill-opacity="1">
<use xlink:href="#glyph-1749865474452099--2-0" x="182.95609" y="27.119982"/>
</g>
<g fill="rgb(0%, 0%, 0%)" fill-opacity="1">
<use xlink:href="#glyph-1749865474452099--1-0" x="190.677589" y="27.119982"/>
</g>
</svg>

